<!DOCTYPE svg PUBLIC "-//W3C//DTD SVG 1.1//EN" "http://www.w3.org/Graphics/SVG/1.1/DTD/svg11.dtd">
<!-- Uploaded to: SVG Repo, www.svgrepo.com, Transformed by: SVG Repo Mixer Tools -->
<svg fill="#FFFF00" height="800px" width="800px" version="1.1" id="Capa_1" xmlns="http://www.w3.org/2000/svg" xmlns:xlink="http://www.w3.org/1999/xlink" viewBox="0 0 461 461" xml:space="preserve" stroke="#FFFF00">
<g id="SVGRepo_bgCarrier" stroke-width="0"/>
<g id="SVGRepo_tracerCarrier" stroke-linecap="round" stroke-linejoin="round"/>
<g id="SVGRepo_iconCarrier"> <g> <path d="M427.234,207.848c-19.791-18.087-47.415-33.195-80.157-43.896c0.942-2.773,1.213-5.764,0.713-8.75 c-0.452-2.685-1.498-5.203-3.042-7.392c2.495-3.91,3.358-8.7,2.26-13.367c-0.537-2.299-1.531-4.441-2.906-6.313 c2.794-4.189,3.653-9.51,2.099-14.483c-0.726-2.317-1.916-4.413-3.483-6.182c2.511-4.301,2.984-9.596,1.042-14.455 c-2.42-6.033-8.084-9.911-14.241-10.339c-0.285-1.132-0.694-2.235-1.226-3.292c-1.931-3.871-5.255-6.754-9.359-8.121 c-3.286-1.094-6.758-1.109-9.987-0.082c-0.029-0.047-0.057-0.095-0.086-0.142c-2.222-3.619-5.722-6.155-9.854-7.14 c-3.524-0.841-7.147-0.467-10.374,1.036c-2.512-3.236-6.117-5.332-10.183-5.914c-3.717-0.533-7.424,0.261-10.566,2.238 c-5.639-5.708-14.739-6.188-20.953-1.136c-2.96-2.352-6.623-3.54-10.44-3.356c-4.02,0.191-7.735,1.882-10.501,4.764 c-6.81-4.145-15.81-2.528-20.702,3.946c-3.188-1.439-6.739-1.782-10.193-0.96c-4.13,0.984-7.632,3.518-9.861,7.137 c-0.07,0.113-0.138,0.227-0.204,0.341c-7.4-2.235-15.58,1.112-19.143,8.239c-0.716,1.421-1.211,2.911-1.48,4.438 c-5.65,0.848-10.604,4.603-12.846,10.202c-2.02,5.04-1.396,10.605,1.387,14.993c-1.409,1.688-2.482,3.647-3.148,5.786 c-1.553,4.971-0.694,10.291,2.1,14.48c-1.374,1.871-2.368,4.011-2.904,6.307c-1.099,4.671-0.235,9.463,2.258,13.373 c-1.044,1.478-1.838,3.111-2.395,4.831c-42.356,8.914-78.71,24.434-105.292,44.982C15.064,221.653,0,247.847,0,275.37 c0,35.027,24.376,67.722,68.638,92.062c43.318,23.82,100.801,36.938,161.862,36.938s118.544-13.119,161.862-36.938 C436.624,343.092,461,310.397,461,275.37C461,251.385,449.324,228.036,427.234,207.848z M158.976,205.725 c-1.584-1.836-2.391-4.165-2.272-6.555c0.119-2.369,1.139-4.588,2.873-6.248c1.99-1.904,2.065-5.059,0.168-7.056 c-1.756-1.848-2.61-4.348-2.342-6.87c0.224-2.16,1.259-4.145,2.913-5.587c1.061-0.925,1.683-2.254,1.713-3.661 c0.03-1.407-0.534-2.762-1.554-3.731c-1.822-1.732-2.723-4.149-2.467-6.658c0.016-0.149,0.028-0.303,0.063-0.499 c0.331-1.966,1.384-3.736,2.966-4.983c1.177-0.929,1.875-2.336,1.903-3.835c0.027-1.499-0.619-2.931-1.761-3.901 c-2.156-1.833-3.095-4.674-2.449-7.422c0.412-1.761,1.46-3.307,2.952-4.354c1.31-0.918,2.102-2.409,2.129-4.009 c0.027-1.6-0.713-3.116-1.991-4.079c-2.355-1.774-3.351-4.847-2.475-7.651c0.522-1.676,1.665-3.086,3.218-3.97 c1.473-0.838,2.421-2.364,2.52-4.056c0.098-1.691-0.667-3.318-2.033-4.32c-2.406-1.767-3.314-4.929-2.207-7.691 c1.194-2.983,4.341-4.639,7.478-3.938c1.658,0.37,3.392-0.127,4.602-1.32c1.209-1.194,1.73-2.92,1.382-4.583 c-0.203-0.968-0.278-2.451,0.518-4.03c1.523-3.046,5.245-4.286,8.273-2.773c0.511,0.258,0.988,0.59,1.418,0.986 c1.414,1.301,3.447,1.678,5.233,0.968c1.786-0.709,3.006-2.379,3.141-4.296c0.069-0.982,0.358-1.894,0.859-2.708 c0.829-1.345,2.129-2.287,3.663-2.652c1.532-0.363,3.115-0.11,4.462,0.72c0.555,0.341,1.054,0.786,1.484,1.324 c1.23,1.537,3.25,2.21,5.154,1.718c1.907-0.493,3.347-2.058,3.679-3.999c0.157-0.919,0.513-1.752,1.061-2.481 c1.89-2.519,5.481-3.028,8.007-1.137c0.594,0.444,1.093,1,1.483,1.653c1.026,1.713,2.972,2.656,4.952,2.388 c1.979-0.264,3.612-1.68,4.152-3.603c0.239-0.849,0.652-1.6,1.239-2.243c1.006-1.109,2.386-1.759,3.884-1.83 c1.5-0.07,2.938,0.446,4.042,1.451c0.595,0.544,1.065,1.206,1.396,1.968c0.793,1.829,2.596,3.01,4.586,3.01 c0.014,0,0.028,0,0.042,0c2.007-0.017,3.81-1.232,4.578-3.086c0.33-0.796,0.798-1.473,1.392-2.012 c2.294-2.084,5.855-1.915,7.941,0.383c0.562,0.618,0.971,1.348,1.215,2.17c0.57,1.917,2.228,3.31,4.214,3.542 c1.991,0.237,3.92-0.743,4.916-2.478c0.376-0.657,0.886-1.228,1.515-1.7c1.219-0.915,2.724-1.299,4.231-1.083 c1.512,0.216,2.849,1.009,3.77,2.238c0.521,0.692,0.867,1.493,1.029,2.379c0.354,1.928,1.802,3.472,3.704,3.947 c1.901,0.475,3.906-0.203,5.127-1.737c0.466-0.585,0.985-1.056,1.559-1.406c1.344-0.828,2.931-1.081,4.465-0.716 c1.532,0.365,2.829,1.305,3.656,2.652c0.488,0.793,0.776,1.667,0.854,2.599c0.162,1.908,1.399,3.557,3.187,4.245 c1.789,0.688,3.811,0.294,5.21-1.014c0.449-0.419,0.934-0.759,1.462-1.021c1.476-0.738,3.152-0.859,4.72-0.337 c1.565,0.521,2.833,1.621,3.576,3.109c0.562,1.119,0.765,2.371,0.587,3.621c-0.243,1.706,0.411,3.417,1.729,4.528 c1.317,1.111,3.116,1.462,4.755,0.936c3.247-1.045,6.784,0.62,8.054,3.786c1.073,2.685,0.276,5.711-1.982,7.53 c-1.308,1.053-2,2.692-1.842,4.364c0.158,1.671,1.144,3.152,2.625,3.942c1.63,0.87,2.832,2.316,3.38,4.07 c0.875,2.798-0.12,5.871-2.476,7.645c-1.278,0.963-2.018,2.479-1.991,4.079c0.027,1.6,0.819,3.09,2.128,4.009 c1.492,1.046,2.541,2.592,2.954,4.361c0.645,2.742-0.294,5.583-2.45,7.415c-1.142,0.971-1.789,2.403-1.761,3.901 c0.027,1.499,0.726,2.906,1.903,3.835c1.582,1.247,2.634,3.017,2.965,4.98c0.404,2.412-0.303,4.841-1.939,6.664 c-0.029,0.032-0.058,0.065-0.086,0.098c-0.123,0.145-0.258,0.282-0.397,0.416c-1.012,0.972-1.568,2.324-1.535,3.726 s0.655,2.726,1.712,3.648c1.654,1.443,2.689,3.427,2.914,5.6c0.267,2.51-0.587,5.01-2.343,6.857 c-1.897,1.997-1.822,5.151,0.168,7.056c1.734,1.66,2.755,3.879,2.874,6.246c0.118,2.392-0.688,4.72-2.273,6.557 c-1.686,1.956-1.606,4.874,0.185,6.733c1.8,1.87,2.792,4.325,2.792,6.912c0,4.142-2.609,7.908-6.493,9.372 c-1.432,0.54-2.538,1.705-3.002,3.164c-0.463,1.458-0.234,3.049,0.624,4.316c0.871,1.288,1.332,2.788,1.332,4.338 c0,4.29-3.49,7.78-7.78,7.78c-0.502,0-1.009-0.051-1.551-0.157c-1.633-0.319-3.318,0.195-4.495,1.373 c-1.016,1.017-1.538,2.413-1.455,3.827c-0.076,4.219-3.532,7.627-7.769,7.627c-1.349,0-2.631-0.336-3.81-0.999 c-1.328-0.747-2.921-0.846-4.331-0.274c-1.41,0.573-2.483,1.756-2.914,3.216c-0.967,3.271-4.028,5.557-7.445,5.557 c-2.088,0-4.048-0.817-5.52-2.3c-1.235-1.246-3.033-1.751-4.737-1.337c-1.704,0.417-3.065,1.695-3.587,3.37 c-1.019,3.27-4.003,5.467-7.427,5.467c-0.492,0-0.963-0.056-1.414-0.146c-8.976-3.662-15.988-7.538-23.173-11.509 c-16.964-9.378-34.464-19.038-77.82-27.632c-1.899-1.488-3.875-2.917-5.37-3.958c-3.209-2.233-5.862-5.183-5.862-9.096 c0-2.588,0.991-5.042,2.792-6.912C160.583,210.599,160.663,207.68,158.976,205.725z M240.214,268.807 c13.991,7.734,27.354,15.118,54.389,21.35l10.918,10.007l-34.974-2.15c-2.4-0.146-4.589,1.453-5.164,3.803 c-0.575,2.35,0.616,4.774,2.826,5.756l35.531,15.794l-15.967,11.011c-16.432,1.331-31.473,4.649-47.18,8.126 c-11.053,2.446-22.481,4.976-35.107,6.979c-4.545,0.721-10.004,1.086-16.225,1.086c-36.508,0-98.167-13.171-120.946-42.453 c-7.97-10.245-10.315-21.25-7.171-33.643c3.792-14.941,16.409-25.533,38.574-32.381c9.648-2.981,19.822-4.493,30.237-4.493 c5.939,0,11.969,0.498,17.921,1.48C202.851,248.153,221.845,258.653,240.214,268.807z M318.899,321.958 c-0.167-1.801-1.295-3.372-2.948-4.106l-18.348-8.156l21.4,1.315c2.113,0.127,4.081-1.087,4.909-3.036s0.338-4.209-1.224-5.641 l-9.197-8.431c0.589,0.101,1.164,0.203,1.763,0.303c1.805,0.301,3.653,0.454,5.493,0.454c4.497,0,8.75-1.38,13.151-2.623 c6.604-1.865,16.619,1.217,16.899,1.295c8.431,2.344,13.933,7.385,16.351,14.983c3.799,11.933-0.829,26.3-4.374,30.655 c-3.046,3.742-6.108,5.268-10.569,5.268c-5.904,0-14.213-2.805-25.403-8.575c-0.527-0.272-1.099-0.448-1.688-0.52 c-6.436-0.783-12.657-1.208-18.909-1.331l10.554-7.278C318.249,325.51,319.067,323.759,318.899,321.958z M366.065,289.867 c-3.435-2.666-7.519-4.712-12.218-6.063c-1.593-0.692-7.188-2.896-13.798-2.896c-3.57,0-6.919,0.633-9.955,1.882 c-4.24,1.744-8.814,2.284-13.194,1.554c-14.316-2.389-25.48-5.021-34.68-7.83c0.491-0.492,0.955-1.012,1.387-1.562 c2.265,1.021,4.741,1.559,7.302,1.559c5.998,0,11.519-3.081,14.763-7.899c1.225,0.264,2.479,0.399,3.737,0.399 c8.059,0,14.882-5.393,17.051-12.758c7.956-0.794,14.373-6.86,15.725-14.642c2.243-0.153,4.519-0.24,6.814-0.24 c30.507,0,51,12.927,51,25C400,276.576,385.858,286.275,366.065,289.867z M387.543,358.669 c-41.867,23.022-97.639,35.701-157.043,35.701s-115.177-12.679-157.043-35.701C32.536,336.167,10,306.584,10,275.37 c0-48.369,55.461-92.355,138.599-110.448c0.434,1.6,1.077,3.138,1.941,4.565c-1.699,2.509-2.766,5.406-3.083,8.465 c-0.417,3.921,0.425,7.824,2.348,11.188c-1.844,2.83-2.917,6.103-3.089,9.533c-0.177,3.563,0.629,7.05,2.304,10.136 c-1.966,3.144-3.02,6.781-3.02,10.561c0,3.462,0.903,6.788,2.524,9.703c-6.171-0.966-12.411-1.472-18.568-1.472 c-11.417,0-22.584,1.661-33.189,4.938c-25.415,7.852-40.66,21.134-45.314,39.476c-3.899,15.367-0.881,29.579,8.97,42.243 c26.247,33.739,92.956,46.313,128.839,46.313c6.744,0,12.729-0.407,17.791-1.21c12.925-2.05,24.504-4.613,35.702-7.092 c19.767-4.375,38.437-8.508,59.887-8.508c6.771,0,13.449,0.395,20.387,1.207c12.411,6.323,21.698,9.272,29.178,9.272 c7.425,0,13.419-2.929,18.324-8.955c5.548-6.814,10.93-24.98,6.148-40.002c-0.78-2.45-1.803-4.717-3.037-6.812 C395.698,293.043,410,280.7,410,266.37c0-19.626-26.794-35-61-35c-1.631,0-3.253,0.046-4.866,0.117 c3.664-3.687,5.866-8.74,5.866-14.117c0-3.78-1.054-7.417-3.021-10.561c1.675-3.086,2.481-6.575,2.304-10.139 c-0.172-3.429-1.245-6.701-3.089-9.531c1.922-3.363,2.764-7.263,2.348-11.175c-0.036-0.345-0.084-0.688-0.139-1.028 C411.975,196.807,451,234.721,451,275.37C451,306.584,428.464,336.167,387.543,358.669z"/> <path d="M186.59,123.671c1.259,0,2.513-0.135,3.738-0.399c3.244,4.818,8.764,7.899,14.762,7.899c2.561,0,5.038-0.537,7.303-1.559 c3.293,4.192,8.374,6.758,13.967,6.758c3.451,0,6.803-1.025,9.651-2.871c3.215,2.951,7.455,4.651,11.989,4.651 c4.534,0,8.774-1.7,11.989-4.651c2.848,1.845,6.2,2.871,9.651,2.871c5.593,0,10.674-2.566,13.967-6.758 c2.265,1.021,4.742,1.559,7.303,1.559c5.998,0,11.519-3.081,14.762-7.899c1.226,0.264,2.479,0.399,3.738,0.399 c9.798,0,17.77-7.972,17.77-17.77c0-0.251-0.011-0.64-0.103-1.112c-0.531-2.709-3.158-4.472-5.869-3.945 c-2.488,0.488-4.18,2.743-4.03,5.206c-0.08,4.216-3.534,7.621-7.769,7.621c-1.349,0-2.631-0.336-3.81-0.999 c-1.328-0.747-2.921-0.847-4.331-0.274c-1.41,0.573-2.483,1.756-2.914,3.216c-0.967,3.272-4.028,5.557-7.445,5.557 c-2.088,0-4.048-0.817-5.519-2.3c-1.235-1.247-3.036-1.752-4.737-1.337c-1.705,0.417-3.066,1.695-3.588,3.37 c-1.019,3.27-4.003,5.467-7.426,5.467c-2.48,0-4.758-1.157-6.25-3.173c-1.03-1.392-2.696-2.15-4.433-2.009 c-1.726,0.143-3.255,1.169-4.041,2.712c-1.336,2.622-3.986,4.25-6.915,4.25s-5.579-1.629-6.916-4.25 c-0.786-1.543-2.315-2.569-4.041-2.712c-1.724-0.141-3.403,0.617-4.433,2.009c-1.492,2.017-3.77,3.173-6.25,3.173 c-3.423,0-6.408-2.197-7.427-5.467c-0.521-1.675-1.883-2.954-3.587-3.37c-1.703-0.413-3.501,0.092-4.737,1.337 c-1.471,1.483-3.431,2.3-5.519,2.3c-3.417,0-6.479-2.285-7.445-5.557c-0.431-1.459-1.504-2.643-2.914-3.216 c-1.41-0.571-3.004-0.471-4.332,0.274c-1.178,0.663-2.459,0.999-3.809,0.999c-4.233,0-7.687-3.403-7.769-7.622 c0.15-2.463-1.542-4.717-4.03-5.205c-2.706-0.53-5.337,1.235-5.869,3.945c-0.092,0.472-0.103,0.86-0.103,1.112 C168.82,115.699,176.792,123.671,186.59,123.671z"/> <path d="M186.59,166.671c1.259,0,2.513-0.135,3.738-0.399c3.244,4.818,8.764,7.899,14.762,7.899c2.561,0,5.038-0.537,7.303-1.559 c3.293,4.192,8.374,6.758,13.967,6.758c3.451,0,6.803-1.025,9.651-2.871c3.215,2.951,7.455,4.651,11.989,4.651 c4.534,0,8.774-1.7,11.989-4.651c2.848,1.845,6.2,2.871,9.651,2.871c5.593,0,10.674-2.566,13.967-6.758 c2.265,1.021,4.742,1.559,7.303,1.559c5.998,0,11.519-3.081,14.762-7.899c1.226,0.264,2.479,0.399,3.738,0.399 c9.798,0,17.77-7.972,17.77-17.77c0-0.251-0.011-0.64-0.103-1.112c-0.531-2.71-3.158-4.474-5.869-3.945 c-2.488,0.488-4.18,2.743-4.03,5.206c-0.08,4.216-3.534,7.621-7.769,7.621c-1.349,0-2.631-0.336-3.81-0.999 c-1.328-0.746-2.921-0.847-4.331-0.274c-1.41,0.573-2.483,1.756-2.914,3.216c-0.967,3.272-4.028,5.557-7.445,5.557 c-2.088,0-4.048-0.817-5.519-2.3c-1.235-1.247-3.036-1.753-4.737-1.337c-1.705,0.417-3.066,1.695-3.588,3.37 c-1.019,3.27-4.003,5.467-7.426,5.467c-2.48,0-4.758-1.157-6.25-3.173c-1.03-1.392-2.696-2.145-4.433-2.009 c-1.726,0.143-3.255,1.169-4.041,2.712c-1.336,2.622-3.986,4.25-6.915,4.25s-5.579-1.629-6.916-4.25 c-0.786-1.543-2.315-2.569-4.041-2.712c-1.724-0.142-3.403,0.617-4.433,2.009c-1.492,2.017-3.77,3.173-6.25,3.173 c-3.423,0-6.408-2.197-7.427-5.467c-0.521-1.675-1.883-2.954-3.587-3.37c-1.703-0.415-3.501,0.092-4.737,1.337 c-1.471,1.483-3.431,2.3-5.519,2.3c-3.417,0-6.479-2.285-7.445-5.557c-0.431-1.459-1.504-2.643-2.914-3.216 c-1.41-0.572-3.004-0.471-4.332,0.274c-1.178,0.663-2.459,0.999-3.809,0.999c-4.233,0-7.687-3.403-7.769-7.622 c0.15-2.463-1.542-4.717-4.03-5.205c-2.706-0.529-5.337,1.234-5.869,3.945c-0.092,0.472-0.103,0.86-0.103,1.112 C168.82,158.699,176.792,166.671,186.59,166.671z"/> <path d="M186.59,217.671c1.259,0,2.513-0.135,3.738-0.399c3.244,4.818,8.764,7.899,14.762,7.899c2.561,0,5.038-0.537,7.303-1.559 c3.293,4.192,8.374,6.758,13.967,6.758c3.451,0,6.803-1.025,9.651-2.871c3.215,2.951,7.455,4.651,11.989,4.651 c4.534,0,8.774-1.7,11.989-4.651c2.848,1.845,6.2,2.871,9.651,2.871c5.593,0,10.674-2.566,13.967-6.758 c2.265,1.021,4.742,1.559,7.303,1.559c5.998,0,11.519-3.081,14.762-7.899c1.226,0.264,2.479,0.399,3.738,0.399 c9.798,0,17.77-7.972,17.77-17.77c0-0.251-0.011-0.64-0.103-1.112c-0.531-2.71-3.158-4.473-5.869-3.945 c-2.488,0.488-4.18,2.743-4.03,5.206c-0.08,4.216-3.534,7.621-7.769,7.621c-1.349,0-2.631-0.336-3.81-0.999 c-1.328-0.747-2.921-0.846-4.331-0.274c-1.41,0.573-2.483,1.756-2.914,3.216c-0.967,3.272-4.028,5.557-7.445,5.557 c-2.088,0-4.048-0.817-5.519-2.3c-1.235-1.247-3.036-1.752-4.737-1.337c-1.705,0.417-3.066,1.695-3.588,3.37 c-1.019,3.27-4.003,5.467-7.426,5.467c-2.48,0-4.758-1.157-6.25-3.173c-1.03-1.392-2.696-2.147-4.433-2.009 c-1.726,0.143-3.255,1.169-4.041,2.712c-1.336,2.622-3.986,4.25-6.915,4.25s-5.579-1.629-6.916-4.25 c-0.786-1.543-2.315-2.569-4.041-2.712c-1.724-0.143-3.403,0.617-4.433,2.009c-1.492,2.017-3.77,3.173-6.25,3.173 c-3.423,0-6.408-2.197-7.427-5.467c-0.521-1.675-1.883-2.954-3.587-3.37c-1.703-0.413-3.501,0.092-4.737,1.337 c-1.471,1.483-3.431,2.3-5.519,2.3c-3.417,0-6.479-2.285-7.445-5.557c-0.431-1.459-1.504-2.643-2.914-3.216 c-1.41-0.572-3.004-0.471-4.332,0.274c-1.178,0.663-2.459,0.999-3.809,0.999c-4.233,0-7.687-3.403-7.769-7.622 c0.15-2.463-1.542-4.717-4.03-5.205c-2.706-0.528-5.337,1.235-5.869,3.945c-0.092,0.472-0.103,0.86-0.103,1.112 C168.82,209.699,176.792,217.671,186.59,217.671z"/> <path d="M232.64,113.62c8.185,0,16.112-0.975,22.32-2.745c5.616-1.602,9.602-3.764,11.905-6.449 c11.893-1.786,21.371-6.162,21.371-13.556c0-10.017-17.387-14.5-34.618-14.5c-12.541,0-25.156,2.378-31.099,7.532 c-8.088,0.853-26.429,3.963-26.429,14.598C196.09,108.945,214.447,113.62,232.64,113.62z M253.618,86.37 c12.864,0,21.182,2.639,23.938,4.5c-2.756,1.861-11.074,4.5-23.938,4.5s-21.183-2.639-23.938-4.5 C232.435,89.009,240.753,86.37,253.618,86.37z M219.762,94.325c2.075,4.474,8.209,7.505,15.983,9.245 c-1.006,0.033-2.039,0.051-3.106,0.051c-14.594,0-23.476-3.208-26.029-5.116C208.225,97.291,212.457,95.442,219.762,94.325z"/> </g> </g>
</svg>